<svg xmlns="http://www.w3.org/2000/svg" viewBox="0 0 48 48" id="add"><path fill-rule="evenodd" d="M19 5.5H9c-2.76 0-5 2.24-5 5v28c0 2.76 2.24 5 5 5h28c1.33 0 2.6-.53 3.54-1.46.94-.94 1.46-2.21 1.46-3.54v-8c0-.55-.45-1-1-1s-1 .45-1 1v8c0 .8-.32 1.56-.88 2.12s-1.33.88-2.12.88H9c-1.66 0-3-1.34-3-3v-28c0-1.66 1.34-3 3-3h10c.55 0 1-.45 1-1s-.45-1-1-1Zm11.5-1C23.05 4.5 17 10.55 17 18s6.05 13.5 13.5 13.5S44 25.45 44 18 37.95 4.5 30.5 4.5Zm0 2C36.85 6.5 42 11.65 42 18s-5.15 11.5-11.5 11.5S19 24.35 19 18 24.15 6.5 30.5 6.5Zm-3.5 15V23c0 1.93 1.57 3.5 3.5 3.5S34 24.93 34 23v-1.5h1.5c.93 0 1.82-.37 2.47-1.03.66-.66 1.03-1.55 1.03-2.47 0-1.93-1.57-3.5-3.5-3.5H34V13c0-.93-.37-1.82-1.03-2.47A3.499 3.499 0 0 0 30.5 9.5c-1.93 0-3.5 1.57-3.5 3.5v1.5h-1.5c-.93 0-1.82.37-2.47 1.03-.66.66-1.03 1.55-1.03 2.47 0 1.93 1.57 3.5 3.5 3.5H27Zm2-1c0-.55-.45-1-1-1h-2.5a1.499 1.499 0 1 1 0-3H28c.55 0 1-.45 1-1V13a1.499 1.499 0 1 1 3 0v2.5c0 .27.11.52.29.71.19.19.44.29.71.29h2.5a1.499 1.499 0 1 1 0 3H33c-.55 0-1 .45-1 1V23c0 .83-.67 1.5-1.5 1.5S29 23.83 29 23v-2.5Z" fill="#ffffff" class="color000000 svgShape"></path></svg>