<svg xmlns="http://www.w3.org/2000/svg" viewBox="0 0 88.49 88.49" id="dribbble"><g data-name="Layer 2"><g data-name="Layer 1"><rect width="84.49" height="84.49" x="2" y="2" fill="none" stroke="#000" stroke-miterlimit="10" stroke-width="4" rx="6.09"></rect><path fill="#010101" d="M46.05 67.49H42.3c0-.15-.18-.09-.27-.1a26.65 26.65 0 0 1-2.68-.39 23.55 23.55 0 0 1-14.15-9c-4.85-6.43-6.13-13.76-3.82-21.78a21.7 21.7 0 0 1 6.94-10.65c7.34-6.14 15.6-7.8 24.29-4.52s13.82 9.81 15.41 19c.08.51.08.9.14 1.57.07 1.45.07 1.61 0 3.44a5.2 5.2 0 0 1 0 .59c-.12.88-.21 1.77-.39 2.64a24.07 24.07 0 0 1-20.7 19 2.23 2.23 0 0 0-1.02.2Zm-2.18-3.86A20.18 20.18 0 0 0 52.33 62c.2-.09.27-.18.21-.42-.11-.47-.17-1-.26-1.42a78.27 78.27 0 0 0-3.59-12.47c-.13-.33-.25-.31-.54-.22a32.64 32.64 0 0 0-8.3 4.17 28.14 28.14 0 0 0-4.58 4C32 59.06 31.41 59 31.91 59.38s.91.67 1.38 1a20 20 0 0 0 10.58 3.25ZM24.13 44.15a21.1 21.1 0 0 0 .34 3A19.91 19.91 0 0 0 28.52 56c.4.5.39.5.82 0a39.16 39.16 0 0 1 17.43-12.14c.28-.1.31-.19.18-.45-.57-1.18-1.13-2.36-1.66-3.55-.19-.44-.38-.51-.88-.33a58.25 58.25 0 0 1-15.49 2.95c-1.5.11-3 .2-4.49.17a.3.3 0 0 0-.31.35c.03.38.01.77.01 1.15Zm.53-5.35h.54c2.11-.06 4.21-.2 6.3-.44A62.23 62.23 0 0 0 42.88 36c.25-.07.3-.15.16-.4a95.73 95.73 0 0 0-6.66-10.26c-.15-.2-.25-.24-.49-.13A20.3 20.3 0 0 0 24.66 38.8Zm39.71 3.8A20.07 20.07 0 0 0 60 31a.21.21 0 0 0-.31 0 33.31 33.31 0 0 1-3.87 3A43.35 43.35 0 0 1 49 37.77c-.25.11-.49.14-.08.7a11.34 11.34 0 0 1 1.73 3.75c.12.46.21.55.51.49s.89-.16 1.33-.22a32.24 32.24 0 0 1 5-.34 35.41 35.41 0 0 1 6.51.67c.21.04.45.12.37-.22Zm-7.2-14.51s0-.07-.07-.09a20 20 0 0 0-16.69-4.27c-.33.06-.28.16-.12.38a92.8 92.8 0 0 1 6.41 10.08c.24.44.41.21 1.27-.18.54-.25 1.1-.48 1.63-.75a34 34 0 0 0 7.57-5.17Zm-1 31.61.15-.06a20.1 20.1 0 0 0 7.8-12.53.36.36 0 0 0-.28-.42 30.8 30.8 0 0 0-11.12-.37.27.27 0 0 0-.22.37 85.68 85.68 0 0 1 2.45 7.68c.42 1.75.79 3.53 1.18 5.33Z"></path></g></g></svg>